HIERARCHY
ROOT Hips
{
    OFFSET 0.000000 0.000000 0.000000
    CHANNELS 6 Xposition Yposition Zposition Zrotation Yrotation Xrotation
    JOINT LeftUpLeg
    {
        OFFSET 8.880786 -10.992074 2.946151
        CHANNELS 3 Zrotation Yrotation Xrotation
        JOINT LeftLeg
        {
            OFFSET 14.694236 -40.372078 0.000000
            CHANNELS 3 Zrotation Yrotation Xrotation
            JOINT LeftFoot
            {
                OFFSET 15.683248 -43.089348 0.000000
                CHANNELS 3 Zrotation Yrotation Xrotation
                JOINT LeftToeBase
                {
                    OFFSET 1.120244 -3.077835 12.895535
                    CHANNELS 3 Zrotation Yrotation Xrotation
                    End Site
                    {
                        OFFSET 0.000000 0.000000 0.000000
                    }
                }
            }
        }
    }
    JOINT RightUpLeg
    {
        OFFSET -9.117230 -10.992074 2.946151
        CHANNELS 3 Zrotation Yrotation Xrotation
        JOINT RightLeg
        {
            OFFSET -14.327125 -39.363480 0.000000
            CHANNELS 3 Zrotation Yrotation Xrotation
            JOINT RightFoot
            {
                OFFSET -15.847331 -43.540169 0.000000
                CHANNELS 3 Zrotation Yrotation Xrotation
                JOINT RightToeBase
                {
                    OFFSET -1.723574 -4.735539 12.914443
                    CHANNELS 3 Zrotation Yrotation Xrotation
                    End Site
                    {
                        OFFSET 0.000000 0.000000 0.000000
                    }
                }
            }
        }
    }
    JOINT Spine
    {
        OFFSET -0.247281 11.260408 -1.116349
        CHANNELS 3 Zrotation Yrotation Xrotation
        JOINT Spine1
        {
            OFFSET -0.110574 11.361895 -0.246773
            CHANNELS 3 Zrotation Yrotation Xrotation
            JOINT Neck1
            {
                OFFSET -0.308128 9.985678 0.547958
                CHANNELS 3 Zrotation Yrotation Xrotation
                JOINT Head
                {
                    OFFSET 0.534017 10.011359 -0.630592
                    CHANNELS 3 Zrotation Yrotation Xrotation
                    End Site
                    {
                        OFFSET 0.000000 0.000000 0.000000
                    }
                }
            }
            JOINT LeftShoulder
            {
                OFFSET 0.000000 0.000000 0.000000
                CHANNELS 3 Zrotation Yrotation Xrotation
                JOINT LeftArm
                {
                    OFFSET 19.807442 7.000975 -1.629313
                    CHANNELS 3 Zrotation Yrotation Xrotation
                    JOINT LeftForeArm
                    {
                        OFFSET 30.490372 -0.000000 0.000000
                        CHANNELS 3 Zrotation Yrotation Xrotation
                        JOINT LeftHand
                        {
                            OFFSET 20.802944 -0.000000 0.000000
                            CHANNELS 3 Zrotation Yrotation Xrotation
                            End Site
                            {
                                OFFSET 0.000000 0.000000 0.000000
                            }
                        }
                    }
                }
            }
            JOINT RightShoulder
            {
                OFFSET 0.000000 0.000000 0.000000
                CHANNELS 3 Zrotation Yrotation Xrotation
                JOINT RightArm
                {
                    OFFSET -16.672035 7.882348 -1.543518
                    CHANNELS 3 Zrotation Yrotation Xrotation
                    JOINT RightForeArm
                    {
                        OFFSET -34.468658 -0.000000 -0.000000
                        CHANNELS 3 Zrotation Yrotation Xrotation
                        JOINT RightHand
                        {
                            OFFSET -20.492107 -0.000000 0.000000
                            CHANNELS 3 Zrotation Yrotation Xrotation
                            End Site
                            {
                                OFFSET 0.000000 0.000000 0.000000
                            }
                        }
                    }
                }
            }
        }
    }
}
MOTION
Frames: 18
Frame Time: 0.016667
23.220499 93.199768 -21.661514 7.376903 -41.656414 -4.567001 -15.662700 -9.697800 -18.423700 6.405300 14.809904 46.587292 1.487800 -5.703102 -21.905401 0.408500 -4.103101 -11.366900 11.173299 20.015697 -9.772706 -7.764305 -15.943108 51.709332 -3.182601 -3.710801 -35.173119 -0.616400 5.024501 -13.978504 -4.487635 0.037452 12.612211 1.886302 -0.082500 -4.053705 -2.535687 5.126726 -1.777930 2.245501 1.398301 3.905702 0.000000 0.000000 0.000000 -83.017006 -6.046906 21.965307 144.165207 -45.399101 -104.595299 0.000000 0.000000 -6.552500 0.000000 0.000000 0.000000 72.510010 3.602701 50.714809 -107.397400 58.824902 -75.007103 0.000000 0.000000 -1.219400 
23.390959 93.194687 -21.317205 7.698202 -42.213623 -5.091903 -16.083410 -8.661308 -18.465715 6.499403 14.895403 46.954628 1.427700 -5.898304 -21.428198 0.407400 -4.097603 -11.351304 10.781609 20.210312 -9.173306 -7.657405 -15.861408 51.319008 -3.143502 -3.316102 -34.807835 -0.626200 5.063802 -14.090600 -4.283297 0.194903 12.528063 1.779801 -0.037000 -3.902600 -2.303674 6.537288 -1.377443 2.228400 1.798000 3.912500 0.000000 0.000000 0.000000 -83.596504 -5.718694 22.007799 143.572800 -45.804821 -104.171997 0.000000 0.000000 -6.387600 0.000000 0.000000 0.000000 72.042999 4.628992 51.189018 -105.893120 59.023727 -73.718742 0.000000 0.000000 -1.539600 
23.621248 93.391678 -20.962173 7.993300 -43.043530 -5.529301 -16.482300 -7.452500 -18.764200 6.639400 15.020494 47.496799 1.366300 -5.332002 -20.990301 0.697100 -5.337102 -14.872607 10.336902 20.462698 -8.824794 -7.537302 -15.768204 50.878506 -3.001501 -3.263201 -34.023201 -0.750700 5.534200 -15.438799 -3.863722 0.595927 12.350660 1.381300 0.069100 -3.325101 -1.971995 7.927511 -1.362007 2.173401 2.196701 3.866003 0.000000 0.000000 0.000000 -84.051704 -5.611598 22.193609 143.242203 -46.027309 -103.934502 0.000000 0.000000 -5.881104 0.000000 0.000000 0.000000 72.270897 5.902001 51.039108 -105.572426 59.063644 -73.443748 0.000000 0.000000 -2.068800 
23.970638 93.795250 -20.608833 7.882199 -44.191097 -5.724499 -16.417515 -5.823205 -19.416714 6.865003 15.217103 48.361717 1.184202 -5.307501 -19.495407 0.846701 -5.868902 -16.404610 9.995800 20.549601 -8.766908 -7.421302 -15.676700 50.450397 -2.771201 -2.359300 -32.388100 -0.796000 5.694702 -15.901199 -2.915155 1.166606 12.684377 1.095201 0.248400 -3.324302 -2.026253 8.989799 -1.465158 1.896100 2.507501 4.036403 0.000000 0.000000 0.000000 -84.939102 -5.080801 22.293608 143.299194 -45.989101 -103.975510 0.000000 0.000000 -4.968100 0.000000 0.000000 0.000000 72.225327 6.907192 50.882717 -106.761185 58.911407 -74.462608 0.000000 0.000000 -2.426200 
24.393970 94.342194 -20.322098 7.684403 -45.131905 -5.449204 -16.147102 -4.657100 -20.781099 7.165899 15.469999 49.499100 0.924700 -5.215201 -17.172005 1.105900 -6.681606 -18.775499 9.322203 20.395405 -9.543502 -7.348803 -15.618703 50.181324 -2.414800 -1.191600 -29.853514 -0.849800 5.879400 -16.434999 -1.909468 1.698016 12.911137 1.234100 0.442000 -3.880302 -2.588781 9.954189 -1.732258 1.834601 2.784101 4.341600 0.000000 0.000000 0.000000 -86.178337 -4.134099 22.767406 143.862915 -45.607201 -104.379623 0.000000 0.000000 -4.006000 0.000000 0.000000 0.000000 71.728615 7.130299 50.451706 -109.871994 58.454002 -77.120293 0.000000 0.000000 -2.373000 
24.879389 95.031372 -20.088984 7.575301 -46.321507 -5.314800 -15.767108 -3.203200 -22.311405 7.476406 15.720304 50.654110 0.585200 -5.503402 -13.629396 1.293000 -7.204697 -20.323208 8.433900 20.450205 -10.438802 -7.282705 -15.565400 49.935406 -2.006501 0.684200 -26.614614 -0.860000 5.913799 -16.534409 -0.954913 2.145524 13.324733 0.949800 0.587400 -3.922202 -2.691018 11.051620 -2.224151 1.590701 3.114202 4.132302 0.000000 0.000000 0.000000 -86.696899 -3.942100 22.958494 144.731201 -45.003109 -104.996910 0.000000 0.000000 -3.390500 0.000000 0.000000 0.000000 71.774010 8.069298 50.047512 -114.190422 57.669147 -80.785522 0.000000 0.000000 -2.287300 
25.370451 95.795067 -19.774591 7.820201 -47.387608 -5.605599 -15.628209 -2.033401 -23.503700 7.766999 15.945198 51.719002 0.260900 -5.628100 -9.318996 1.138201 -6.775402 -19.051514 7.034401 19.992397 -11.265603 -7.155205 -15.461204 49.458817 -1.558901 2.866901 -22.855801 -0.952101 6.213802 -17.405909 -0.264563 2.494514 13.972624 1.087600 0.712600 -4.137804 -3.142735 12.102182 -2.463300 1.259000 3.432001 4.015100 0.000000 0.000000 0.000000 -87.489799 -3.551803 23.269007 145.899323 -44.159222 -105.816826 0.000000 0.000000 -3.506400 0.000000 0.000000 0.000000 71.413078 8.900308 49.615807 -119.328842 56.486134 -85.099960 0.000000 0.000000 -2.319600 
25.864336 96.538429 -19.510998 7.701905 -48.531609 -5.610800 -15.081608 -0.766300 -24.918709 8.076205 16.174997 52.836628 0.031000 -5.585002 -4.777800 0.969300 -6.268000 -17.564104 6.019601 20.170208 -11.677602 -6.909699 -15.255404 48.532104 -1.131101 5.069201 -19.057610 -0.855900 5.900002 -16.494614 0.650985 2.865729 14.555705 0.881100 0.836200 -3.942600 -3.230288 13.015609 -2.892613 0.942300 3.710498 3.747702 0.000000 0.000000 0.000000 -87.326408 -3.946499 23.852402 147.077606 -43.270302 -106.631111 0.000000 0.000000 -3.800700 0.000000 0.000000 0.000000 71.519218 10.232702 49.291603 -124.352814 55.033817 -89.254318 0.000000 0.000000 -2.127601 
26.301777 97.158188 -19.190395 7.266497 -49.563297 -5.525899 -14.291398 0.529300 -26.146904 8.329403 16.356201 53.740608 -0.092700 -5.987803 -0.592700 1.011000 -6.397598 -17.942593 5.491401 20.339705 -11.514613 -6.584600 -14.971899 47.285301 -0.841200 6.041901 -16.351799 -1.268300 7.138200 -20.125401 1.798050 3.092152 15.192373 0.783800 0.935900 -3.965504 -3.348206 13.644185 -2.837543 0.712200 3.899100 3.591800 0.000000 0.000000 0.000000 -86.930801 -4.219904 24.251101 148.511917 -42.135220 -107.604019 0.000000 0.000000 -4.454200 0.000000 0.000000 0.000000 71.290001 11.401402 48.964321 -129.546112 53.176910 -93.462906 0.000000 0.000000 -2.730201 
26.689545 97.591682 -18.857941 7.166900 -50.459599 -5.715100 -13.772993 1.419401 -26.923901 8.441695 16.434694 54.138409 -0.120400 -6.145602 1.979900 0.848201 -5.873901 -16.418903 4.780002 21.373405 -10.757407 -6.292705 -14.706117 46.145344 -0.664200 8.318503 -14.784507 -1.353300 7.364200 -20.798910 2.607093 3.255814 15.566353 0.593600 1.000100 -3.596401 -3.191425 14.252857 -2.727621 0.503000 4.078300 3.497703 0.000000 0.000000 0.000000 -85.821693 -5.281902 24.591900 149.918213 -40.963409 -108.536819 0.000000 0.000000 -5.261700 0.000000 0.000000 0.000000 71.106094 12.968405 48.552319 -134.260513 51.125736 -97.187027 0.000000 0.000000 -3.762499 
27.032724 97.829865 -18.514761 6.893403 -50.958637 -5.779607 -13.233200 1.911500 -27.235001 8.469707 16.454111 54.237518 -0.046600 -3.901598 0.618000 0.799700 -5.707700 -15.938601 4.375104 21.915100 -9.886805 -6.073403 -14.499108 45.275509 -0.478000 10.626607 -13.441107 -1.354699 7.367800 -20.809807 3.367610 3.069112 15.697080 0.638200 0.973300 -3.369801 -3.053372 14.687110 -2.128940 0.268300 4.204502 3.357302 0.000000 0.000000 0.000000 -84.596817 -6.123197 24.631601 151.308121 -39.745514 -109.436836 0.000000 0.000000 -5.809303 0.000000 0.000000 0.000000 70.775490 14.611101 48.213596 -138.522202 48.921513 -100.454025 0.000000 0.000000 -5.008202 
27.307608 97.808990 -18.192465 6.199901 -51.119499 -5.448098 -12.328308 1.885202 -27.265810 8.323604 16.352203 53.720127 0.031100 0.293200 -3.451499 0.681700 -5.279100 -14.706299 4.375301 22.491909 -9.000199 -6.032202 -14.459496 45.111000 -0.521500 9.800204 -13.641302 -1.092601 6.642701 -18.661100 4.327029 2.840039 15.570800 0.616400 0.940600 -3.236600 -2.649330 14.956555 -1.240060 0.211100 4.274900 3.333402 0.000000 0.000000 0.000000 -82.570793 -7.721699 24.875801 152.577393 -38.579201 -110.238503 0.000000 0.000000 -6.700302 0.000000 0.000000 0.000000 70.462402 16.270905 47.593410 -142.203522 46.708809 -103.182701 0.000000 0.000000 -5.845000 
27.506855 97.540878 -17.859446 6.280301 -51.364498 -5.862700 -11.859907 1.559200 -26.626907 7.927803 16.065901 52.302219 0.042000 3.814198 -6.986904 0.517500 -4.610603 -12.801304 4.107101 21.995516 -8.519301 -6.219500 -14.637797 45.856506 -0.831800 5.837798 -16.258293 -1.585501 7.943405 -22.542311 4.437857 2.552001 15.344685 0.858800 0.865200 -3.045402 -2.162746 15.345803 -0.112843 0.228200 4.376402 3.442002 0.000000 0.000000 0.000000 -80.160202 -9.733006 24.812811 153.795593 -37.409805 -110.988525 0.000000 0.000000 -7.858600 0.000000 0.000000 0.000000 70.213806 18.227001 47.142498 -145.203506 44.666313 -105.329903 0.000000 0.000000 -6.848702 
27.593779 97.065620 -17.532072 6.827905 -51.354237 -6.720406 -11.636800 0.642800 -25.319597 7.299703 15.579206 49.999012 -0.014100 6.231200 -8.503000 0.502500 -4.544600 -12.614010 3.529900 21.928808 -7.807600 -6.642902 -15.023700 47.510502 -1.113801 3.890701 -19.031921 -1.249900 7.088200 -19.976900 4.027484 2.401407 15.077919 1.251301 0.813100 -2.845002 -1.570670 15.485614 0.859467 0.468401 4.402302 3.583502 0.000000 0.000000 0.000000 -77.603989 -12.017004 24.685402 154.819901 -36.387501 -111.603500 0.000000 0.000000 -9.356700 0.000000 0.000000 0.000000 69.940506 20.306608 46.056610 -147.885895 42.637901 -107.181999 0.000000 0.000000 -9.266400 
27.705540 96.277657 -17.189455 7.633909 -50.903336 -7.628504 -11.563999 -1.471800 -23.662300 6.687499 15.063003 47.682404 0.075500 5.483002 -9.782806 0.752100 -5.539302 -15.453300 2.546301 21.482208 -7.566502 -7.324598 -15.599205 50.091404 -1.257600 2.554900 -20.510201 -1.012500 6.402201 -17.955996 3.388443 1.956832 14.453227 1.650200 0.670400 -2.715001 -1.156510 15.487758 1.906503 0.598900 4.392602 3.725300 0.000000 0.000000 0.000000 -75.119507 -14.179799 24.304892 155.669907 -35.511398 -112.102501 0.000000 0.000000 -11.215400 0.000000 0.000000 0.000000 69.566833 22.243107 44.853920 -149.908615 40.971722 -108.530548 0.000000 0.000000 -10.778200 
27.876562 95.051697 -16.928120 7.698109 -50.732128 -8.034407 -10.727500 -3.495000 -22.114300 6.494299 14.890800 46.934799 0.278200 2.019400 -10.913201 1.230101 -7.033902 -19.815905 2.133000 21.090300 -7.575500 -8.121803 -16.208105 53.000320 -1.142201 0.355200 -20.095200 -0.788001 5.666602 -15.820201 3.393786 1.911318 14.054352 1.593500 0.655600 -2.692300 -0.439142 15.155331 2.701070 0.810400 4.290000 3.743300 0.000000 0.000000 0.000000 -72.208832 -16.933800 23.764513 156.277802 -34.869110 -112.452919 0.000000 0.000000 -12.940904 0.000000 0.000000 0.000000 69.239212 24.052603 43.249912 -151.867218 39.238197 -109.792427 0.000000 0.000000 -12.806108 
28.019365 93.808800 -16.641949 8.562800 -50.568199 -9.420300 -10.647393 -5.019700 -20.564501 6.700304 15.074313 47.731609 0.428300 -1.554000 -11.920104 2.148001 -9.167804 -26.321501 1.390099 21.076097 -6.765104 -8.811296 -16.684801 55.435398 -1.005700 1.118500 -18.614208 -0.824301 5.792903 -16.184711 2.722445 1.848794 14.015469 1.763201 0.621100 -2.751700 0.121313 15.158787 3.395405 1.142001 4.282902 3.569600 0.000000 0.000000 0.000000 -69.421600 -19.716303 22.623898 156.624603 -34.496716 -112.650223 0.000000 0.000000 -14.491104 0.000000 0.000000 0.000000 68.879707 25.845104 41.508110 -153.701202 37.502197 -110.931099 0.000000 0.000000 -15.215700 
28.124916 92.481804 -16.538656 9.626009 -50.100239 -11.067010 -10.775806 -6.350404 -19.687210 7.030304 15.357306 48.988834 0.546501 -5.225705 -13.165608 2.331901 -9.525702 -27.454014 0.737300 20.882601 -5.652101 -9.343505 -17.023701 57.270599 -0.974000 3.052900 -17.876503 -1.559502 7.880905 -22.352919 1.566046 1.731625 14.333345 2.170801 0.561300 -2.864900 0.592321 14.956756 3.740666 1.451000 4.222699 3.235200 0.000000 0.000000 0.000000 -66.621902 -22.846600 21.368999 156.853622 -34.248493 -112.779510 0.000000 0.000000 -15.875509 0.000000 0.000000 0.000000 68.296799 28.123707 39.267597 -155.017700 36.185902 -111.720596 0.000000 0.000000 -17.375401 
